<svg width="152" height="165" viewBox="0 0 152 165" fill="none" xmlns="http://www.w3.org/2000/svg">
<g clip-path="url(#clip0_190_72)">
<path d="M13.8183 6.875H6.90918V13.75H13.8183V6.875Z" fill="#D94F04"/>
<path d="M6.90909 13.75H0V20.625H6.90909V13.75Z" fill="#D94F04"/>
<path d="M20.7274 0H13.8184V6.875H20.7274V0Z" fill="#D94F04"/>
<path d="M20.7274 6.875H13.8184V13.75H20.7274V6.875Z" fill="#F29325"/>
<path d="M6.90909 151.25H0V158.125H6.90909V151.25Z" fill="#D94F04"/>
<path d="M13.8183 151.25H6.90918V158.125H13.8183V151.25Z" fill="#F29325"/>
<path d="M13.8183 158.125H6.90918V165H13.8183V158.125Z" fill="#D94F04"/>
<path d="M20.7274 151.25H13.8184V158.125H20.7274V151.25Z" fill="#F29325"/>
<path d="M20.7274 158.125H13.8184V165H20.7274V158.125Z" fill="#F29325"/>
<path d="M13.8183 13.75H6.90918V20.625H13.8183V13.75Z" fill="#F29325"/>
<path d="M138.182 0H20.7271V165H138.182V0Z" fill="#F29325"/>
<path d="M20.7274 13.75H13.8184V20.625H20.7274V13.75Z" fill="#F29325"/>
<path d="M20.7273 20.625H0V151.25H20.7273V20.625Z" fill="#F29325"/>
<path d="M34.5453 13.75H27.6362V20.625H34.5453V13.75Z" fill="#D94F04"/>
<path d="M34.5453 20.625H27.6362V27.5H34.5453V20.625Z" fill="#D94F04"/>
<path d="M27.6361 13.75H20.7271V20.625H27.6361V13.75Z" fill="#D94F04"/>
<path d="M27.6361 20.625H20.7271V27.5H27.6361V20.625Z" fill="#D94F04"/>
<path d="M27.6361 27.5H20.7271V34.375H27.6361V27.5Z" fill="#D94F04"/>
<path d="M34.5453 27.5H27.6362V34.375H34.5453V27.5Z" fill="#D94F04"/>
<path d="M48.3638 55H27.6365C20.005 55 13.8184 61.1561 13.8184 68.75C13.8184 76.3439 20.005 82.5 27.6365 82.5H48.3638C55.9954 82.5 62.182 76.3439 62.182 68.75C62.182 61.1561 55.9954 55 48.3638 55Z" fill="white"/>
<path d="M131.273 27.5H34.5454V34.375H131.273V27.5Z" fill="#ECEBEB"/>
<path d="M131.273 13.75H34.5454V20.625H131.273V13.75Z" fill="#ECEBEB"/>
<path d="M131.273 20.625H27.6362V27.5H131.273V20.625Z" fill="#E1E0DF"/>
<path d="M152 55H145.091V61.875H152V55Z" fill="#703F24"/>
<path d="M152 61.875H145.091V68.75H152V61.875Z" fill="#703F24"/>
<path d="M152 68.75H145.091V75.625H152V68.75Z" fill="#703F24"/>
<path d="M152 75.625H145.091V82.5H152V75.625Z" fill="#703F24"/>
<path d="M138.182 48.125H131.273V55H138.182V48.125Z" fill="#703F24"/>
<path d="M145.091 48.125H138.182V55H145.091V48.125Z" fill="#703F24"/>
<path d="M138.182 82.5H131.273V89.375H138.182V82.5Z" fill="#703F24"/>
<path d="M145.091 82.5H138.182V89.375H145.091V82.5Z" fill="#703F24"/>
<path d="M131.273 55H110.545C102.914 55 96.7271 61.1561 96.7271 68.75C96.7271 76.3439 102.914 82.5 110.545 82.5H131.273C138.904 82.5 145.091 76.3439 145.091 68.75C145.091 61.1561 138.904 55 131.273 55Z" fill="white"/>
<path d="M138.182 68.75H131.273V75.625H138.182V68.75Z" fill="black"/>
<path d="M138.182 61.875H131.273V68.75H138.182V61.875Z" fill="black"/>
<path d="M131.273 68.75H124.364V75.625H131.273V68.75Z" fill="black"/>
<path d="M131.273 61.875H124.364V68.75H131.273V61.875Z" fill="black"/>
<path d="M103.636 82.5H96.7271V89.375H103.636V82.5Z" fill="#703F24"/>
<path d="M110.545 82.5H103.636V89.375H110.545V82.5Z" fill="#703F24"/>
<path d="M117.455 82.5H110.545V89.375H117.455V82.5Z" fill="#703F24"/>
<path d="M131.273 82.5H124.364V89.375H131.273V82.5Z" fill="#703F24"/>
<path d="M124.364 82.5H117.455V89.375H124.364V82.5Z" fill="#703F24"/>
<path d="M103.636 48.125H96.7271V55H103.636V48.125Z" fill="#703F24"/>
<path d="M110.545 48.125H103.636V55H110.545V48.125Z" fill="#703F24"/>
<path d="M117.455 48.125H110.545V55H117.455V48.125Z" fill="#703F24"/>
<path d="M131.273 48.125H124.364V55H131.273V48.125Z" fill="#703F24"/>
<path d="M124.364 48.125H117.455V55H124.364V48.125Z" fill="#703F24"/>
<path d="M96.7274 61.875H89.8184V68.75H96.7274V61.875Z" fill="#703F24"/>
<path d="M96.7274 75.625H89.8184V82.5H96.7274V75.625Z" fill="#703F24"/>
<path d="M96.7274 55H89.8184V61.875H96.7274V55Z" fill="#703F24"/>
<path d="M96.7274 68.75H89.8184V75.625H96.7274V68.75Z" fill="#703F24"/>
<path d="M89.8183 61.875H82.9092V68.75H89.8183V61.875Z" fill="#703F24"/>
<path d="M75.9999 61.875H69.0908V68.75H75.9999V61.875Z" fill="#703F24"/>
<path d="M82.9091 61.875H76V68.75H82.9091V61.875Z" fill="#703F24"/>
<path d="M69.0907 55H62.1816V61.875H69.0907V55Z" fill="#703F24"/>
<path d="M69.0907 75.625H62.1816V82.5H69.0907V75.625Z" fill="#703F24"/>
<path d="M69.0907 61.875H62.1816V68.75H69.0907V61.875Z" fill="#703F24"/>
<path d="M69.0907 68.75H62.1816V75.625H69.0907V68.75Z" fill="#703F24"/>
<path d="M20.7274 48.125H13.8184V55H20.7274V48.125Z" fill="#703F24"/>
<path d="M55.2729 48.125H48.3638V55H55.2729V48.125Z" fill="#703F24"/>
<path d="M27.6361 48.125H20.7271V55H27.6361V48.125Z" fill="#703F24"/>
<path d="M34.5453 48.125H27.6362V55H34.5453V48.125Z" fill="#703F24"/>
<path d="M62.182 48.125H55.2729V55H62.182V48.125Z" fill="#703F24"/>
<path d="M41.4545 48.125H34.5454V55H41.4545V48.125Z" fill="#703F24"/>
<path d="M48.3637 48.125H41.4546V55H48.3637V48.125Z" fill="#703F24"/>
<path d="M48.3637 61.875H41.4546V68.75H48.3637V61.875Z" fill="black"/>
<path d="M48.3637 68.75H41.4546V75.625H48.3637V68.75Z" fill="black"/>
<path d="M55.2729 61.875H48.3638V68.75H55.2729V61.875Z" fill="black"/>
<path d="M55.2729 68.75H48.3638V75.625H55.2729V68.75Z" fill="black"/>
<path d="M55.2729 61.875H48.3638V68.75H55.2729V61.875Z" fill="black"/>
<path d="M55.2729 68.75H48.3638V75.625H55.2729V68.75Z" fill="black"/>
<path d="M20.7274 82.5H13.8184V89.375H20.7274V82.5Z" fill="#703F24"/>
<path d="M55.2729 82.5H48.3638V89.375H55.2729V82.5Z" fill="#703F24"/>
<path d="M27.6361 82.5H20.7271V89.375H27.6361V82.5Z" fill="#703F24"/>
<path d="M34.5453 82.5H27.6362V89.375H34.5453V82.5Z" fill="#703F24"/>
<path d="M62.182 82.5H55.2729V89.375H62.182V82.5Z" fill="#703F24"/>
<path d="M41.4545 82.5H34.5454V89.375H41.4545V82.5Z" fill="#703F24"/>
<path d="M48.3637 82.5H41.4546V89.375H48.3637V82.5Z" fill="#703F24"/>
<path d="M13.8183 55H6.90918V61.875H13.8183V55Z" fill="#703F24"/>
<path d="M13.8183 75.625H6.90918V82.5H13.8183V75.625Z" fill="#703F24"/>
<path d="M13.8183 61.875H6.90918V68.75H13.8183V61.875Z" fill="#703F24"/>
<path d="M13.8183 68.75H6.90918V75.625H13.8183V68.75Z" fill="#703F24"/>
<path d="M6.90909 61.875H0V68.75H6.90909V61.875Z" fill="#703F24"/>
<path d="M69.0907 116.875H62.1816V123.75H69.0907V116.875Z" fill="#703F24"/>
<path d="M75.9999 116.875H69.0908V123.75H75.9999V116.875Z" fill="#703F24"/>
<path d="M82.9091 116.875H76V123.75H82.9091V116.875Z" fill="#703F24"/>
<path d="M89.8183 116.875H82.9092V123.75H89.8183V116.875Z" fill="#703F24"/>
<path d="M96.7274 116.875H89.8184V123.75H96.7274V116.875Z" fill="#703F24"/>
<path d="M62.182 110H55.2729V116.875H62.182V110Z" fill="#703F24"/>
<path d="M103.636 110H96.7271V116.875H103.636V110Z" fill="#703F24"/>
<path d="M55.2729 103.125H48.3638V110H55.2729V103.125Z" fill="#703F24"/>
</g>
<defs>
<clipPath id="clip0_190_72">
<rect width="152" height="165" fill="white"/>
</clipPath>
</defs>
</svg>
