<svg width="152" height="165" viewBox="0 0 152 165" fill="none" xmlns="http://www.w3.org/2000/svg">
<g clip-path="url(#clip0_25_6)">
<mask id="mask0_25_6" style="mask-type:luminance" maskUnits="userSpaceOnUse" x="0" y="0" width="152" height="165">
<path d="M0 0H152V165H0V0Z" fill="white"/>
</mask>
<g mask="url(#mask0_25_6)">
<path d="M138.181 6.875H145.09V13.75H138.181V6.875Z" fill="#D94F04"/>
<path d="M145.091 13.75H152V20.625H145.091V13.75Z" fill="#D94F04"/>
<path d="M131.273 0H138.182V6.875H131.273V0Z" fill="#D94F04"/>
<path d="M131.273 6.875H138.182V13.75H131.273V6.875Z" fill="#F29325"/>
<path d="M145.091 151.25H152V158.125H145.091V151.25Z" fill="#D94F04"/>
<path d="M138.181 151.25H145.09V158.125H138.181V151.25Z" fill="#F29325"/>
<path d="M138.181 158.125H145.09V165H138.181V158.125Z" fill="#D94F04"/>
<path d="M131.273 151.25H138.182V158.125H131.273V151.25Z" fill="#F29325"/>
<path d="M131.273 158.125H138.182V165H131.273V158.125Z" fill="#F29325"/>
<path d="M138.181 13.75H145.09V20.625H138.181V13.75Z" fill="#F29325"/>
<path d="M13.8185 0H131.273V165H13.8185V0Z" fill="#F29325"/>
<path d="M131.273 13.75H138.182V20.625H131.273V13.75Z" fill="#F29325"/>
<path d="M131.273 20.625H152V151.25H131.273V20.625Z" fill="#F29325"/>
<path d="M117.454 13.75H124.363V20.625H117.454V13.75Z" fill="#D94F04"/>
<path d="M117.454 20.625H124.363V27.5H117.454V20.625Z" fill="#D94F04"/>
<path d="M124.364 13.75H131.273V20.625H124.364V13.75Z" fill="#D94F04"/>
<path d="M124.364 20.625H131.273V27.5H124.364V20.625Z" fill="#D94F04"/>
<path d="M124.364 27.5H131.273V34.375H124.364V27.5Z" fill="#D94F04"/>
<path d="M117.454 27.5H124.363V34.375H117.454V27.5Z" fill="#D94F04"/>
<path d="M103.636 55H124.364C131.995 55 138.182 61.1561 138.182 68.75C138.182 76.3439 131.995 82.5 124.364 82.5H103.636C96.0046 82.5 89.818 76.3439 89.818 68.75C89.818 61.1561 96.0046 55 103.636 55Z" fill="white"/>
<path d="M20.7275 27.5H117.455V34.375H20.7275V27.5Z" fill="#ECEBEB"/>
<path d="M20.7275 13.75H117.455V20.625H20.7275V13.75Z" fill="#ECEBEB"/>
<path d="M20.7265 20.625H124.363V27.5H20.7265V20.625Z" fill="#E1E0DF"/>
<path d="M-0.000793457 55H6.9082V61.875H-0.000793457V55Z" fill="#703F24"/>
<path d="M-0.000793457 61.875H6.9082V68.75H-0.000793457V61.875Z" fill="#703F24"/>
<path d="M-0.000793457 68.75H6.9082V75.625H-0.000793457V68.75Z" fill="#703F24"/>
<path d="M-0.000793457 75.625H6.9082V82.5H-0.000793457V75.625Z" fill="#703F24"/>
<path d="M13.8176 48.125H20.7266V55H13.8176V48.125Z" fill="#703F24"/>
<path d="M6.90936 48.125H13.8184V55H6.90936V48.125Z" fill="#703F24"/>
<path d="M13.8176 82.5H20.7266V89.375H13.8176V82.5Z" fill="#703F24"/>
<path d="M6.90936 82.5H13.8184V89.375H6.90936V82.5Z" fill="#703F24"/>
<path d="M20.7275 55H41.4555C49.0865 55 55.2734 61.1561 55.2734 68.75C55.2734 76.3439 49.0865 82.5 41.4555 82.5H20.7275C13.0965 82.5 6.90953 76.3439 6.90953 68.75C6.90953 61.1561 13.0965 55 20.7275 55Z" fill="white"/>
<path d="M13.8176 68.75H20.7266V75.625H13.8176V68.75Z" fill="black"/>
<path d="M13.8176 61.875H20.7266V68.75H13.8176V61.875Z" fill="black"/>
<path d="M20.7277 68.75H27.6367V75.625H20.7277V68.75Z" fill="black"/>
<path d="M20.7277 61.875H27.6367V68.75H20.7277V61.875Z" fill="black"/>
<path d="M48.3645 82.5H55.2734V89.375H48.3645V82.5Z" fill="#703F24"/>
<path d="M41.4543 82.5H48.3633V89.375H41.4543V82.5Z" fill="#703F24"/>
<path d="M34.5451 82.5H41.4551V89.375H34.5451V82.5Z" fill="#703F24"/>
<path d="M20.7277 82.5H27.6367V89.375H20.7277V82.5Z" fill="#703F24"/>
<path d="M27.6359 82.5H34.5449V89.375H27.6359V82.5Z" fill="#703F24"/>
<path d="M48.3645 48.125H55.2734V55H48.3645V48.125Z" fill="#703F24"/>
<path d="M41.4543 48.125H48.3633V55H41.4543V48.125Z" fill="#703F24"/>
<path d="M34.5451 48.125H41.4551V55H34.5451V48.125Z" fill="#703F24"/>
<path d="M20.7277 48.125H27.6367V55H20.7277V48.125Z" fill="#703F24"/>
<path d="M27.6359 48.125H34.5449V55H27.6359V48.125Z" fill="#703F24"/>
<path d="M55.2726 61.875H62.1816V68.75H55.2726V61.875Z" fill="#703F24"/>
<path d="M55.2726 75.625H62.1816V82.5H55.2726V75.625Z" fill="#703F24"/>
<path d="M55.2726 55H62.1816V61.875H55.2726V55Z" fill="#703F24"/>
<path d="M55.2726 68.75H62.1816V75.625H55.2726V68.75Z" fill="#703F24"/>
<path d="M62.1807 61.875H69.0898V68.75H62.1807V61.875Z" fill="#703F24"/>
<path d="M76.0011 61.875H82.9102V68.75H76.0011V61.875Z" fill="#703F24"/>
<path d="M69.0909 61.875H76V68.75H69.0909V61.875Z" fill="#703F24"/>
<path d="M82.9093 55H89.8184V61.875H82.9093V55Z" fill="#703F24"/>
<path d="M82.9093 75.625H89.8184V82.5H82.9093V75.625Z" fill="#703F24"/>
<path d="M82.9093 61.875H89.8184V68.75H82.9093V61.875Z" fill="#703F24"/>
<path d="M82.9093 68.75H89.8184V75.625H82.9093V68.75Z" fill="#703F24"/>
<path d="M131.273 48.125H138.182V55H131.273V48.125Z" fill="#703F24"/>
<path d="M96.7276 48.125H103.637V55H96.7276V48.125Z" fill="#703F24"/>
<path d="M124.364 48.125H131.273V55H124.364V48.125Z" fill="#703F24"/>
<path d="M117.454 48.125H124.363V55H117.454V48.125Z" fill="#703F24"/>
<path d="M89.8175 48.125H96.7266V55H89.8175V48.125Z" fill="#703F24"/>
<path d="M110.546 48.125H117.455V55H110.546V48.125Z" fill="#703F24"/>
<path d="M103.636 48.125H110.545V55H103.636V48.125Z" fill="#703F24"/>
<path d="M103.636 61.875H110.545V68.75H103.636V61.875Z" fill="black"/>
<path d="M103.636 68.75H110.545V75.625H103.636V68.75Z" fill="black"/>
<path d="M96.7276 61.875H103.637V68.75H96.7276V61.875Z" fill="black"/>
<path d="M96.7276 68.75H103.637V75.625H96.7276V68.75Z" fill="black"/>
<path d="M96.7276 61.875H103.637V68.75H96.7276V61.875Z" fill="black"/>
<path d="M96.7276 68.75H103.637V75.625H96.7276V68.75Z" fill="black"/>
<path d="M131.273 82.5H138.182V89.375H131.273V82.5Z" fill="#703F24"/>
<path d="M96.7276 82.5H103.637V89.375H96.7276V82.5Z" fill="#703F24"/>
<path d="M124.364 82.5H131.273V89.375H124.364V82.5Z" fill="#703F24"/>
<path d="M117.454 82.5H124.363V89.375H117.454V82.5Z" fill="#703F24"/>
<path d="M89.8175 82.5H96.7266V89.375H89.8175V82.5Z" fill="#703F24"/>
<path d="M110.546 82.5H117.455V89.375H110.546V82.5Z" fill="#703F24"/>
<path d="M103.636 82.5H110.545V89.375H103.636V82.5Z" fill="#703F24"/>
<path d="M138.181 55H145.09V61.875H138.181V55Z" fill="#703F24"/>
<path d="M138.181 75.625H145.09V82.5H138.181V75.625Z" fill="#703F24"/>
<path d="M138.181 61.875H145.09V68.75H138.181V61.875Z" fill="#703F24"/>
<path d="M138.181 68.75H145.09V75.625H138.181V68.75Z" fill="#703F24"/>
<path d="M145.091 61.875H152V68.75H145.091V61.875Z" fill="#703F24"/>
<path d="M82.9093 116.875H89.8184V123.75H82.9093V116.875Z" fill="#703F24"/>
<path d="M76.0011 116.875H82.9102V123.75H76.0011V116.875Z" fill="#703F24"/>
<path d="M69.0909 116.875H76V123.75H69.0909V116.875Z" fill="#703F24"/>
<path d="M62.1807 116.875H69.0898V123.75H62.1807V116.875Z" fill="#703F24"/>
<path d="M55.2726 116.875H62.1816V123.75H55.2726V116.875Z" fill="#703F24"/>
<path d="M89.8175 110H96.7266V116.875H89.8175V110Z" fill="#703F24"/>
<path d="M48.3645 110H55.2734V116.875H48.3645V110Z" fill="#703F24"/>
<path d="M96.7276 103.125H103.637V110H96.7276V103.125Z" fill="#703F24"/>
</g>
</g>
<defs>
<clipPath id="clip0_25_6">
<rect width="152" height="165" fill="white" transform="matrix(-1 0 0 1 152 0)"/>
</clipPath>
</defs>
</svg>
