<svg width="110" height="75" viewBox="0 0 110 75" fill="none" xmlns="http://www.w3.org/2000/svg">
<path d="M2 37.0172H1.19209e-07V39.0172H2V37.0172ZM94.5 37.0172H96.5V35.0172H94.5V37.0172ZM93.0858 74.4142C93.8668 75.1953 95.1332 75.1953 95.9142 74.4142L108.642 61.6863C109.423 60.9052 109.423 59.6389 108.642 58.8579C107.861 58.0768 106.595 58.0768 105.814 58.8579L94.5 70.1716L83.1863 58.8579C82.4052 58.0768 81.1389 58.0768 80.3579 58.8579C79.5768 59.6389 79.5768 60.9052 80.3579 61.6863L93.0858 74.4142ZM1.19209e-07 0V37.0172H4V0L1.19209e-07 0ZM2 39.0172H94.5V35.0172H2V39.0172ZM92.5 37.0172V73H96.5V37.0172H92.5Z" fill="#D94F04"/>
</svg>
