<svg width="494" height="662" viewBox="0 0 494 662" fill="none" xmlns="http://www.w3.org/2000/svg">
<path d="M2 660H1.19209e-07V662H2V660ZM228.5 660V662H230.5V660H228.5ZM228.5 15V13H226.5V15H228.5ZM492.914 16.4142C493.695 15.6332 493.695 14.3668 492.914 13.5858L480.186 0.857865C479.405 0.0768167 478.139 0.0768167 477.358 0.857865C476.577 1.63891 476.577 2.90524 477.358 3.68629L488.672 15L477.358 26.3137C476.577 27.0948 476.577 28.3611 477.358 29.1421C478.139 29.9232 479.405 29.9232 480.186 29.1421L492.914 16.4142ZM1.19209e-07 639.5V660H4V639.5H1.19209e-07ZM2 662H228.5V658H2V662ZM230.5 660V15H226.5V660H230.5ZM228.5 17H338V13H228.5V17ZM338 17H491.5V13H338V17Z" fill="#D94F04"/>
</svg>
