<svg width="110" height="75" viewBox="0 0 110 75" fill="none" xmlns="http://www.w3.org/2000/svg">
<path d="M107.5 36.7637V38.7637H109.5V36.7637H107.5ZM15 36.7637V34.7637H13V36.7637H15ZM13.5858 74.4142C14.3668 75.1953 15.6332 75.1953 16.4142 74.4142L29.1421 61.6863C29.9232 60.9052 29.9232 59.6389 29.1421 58.8579C28.3611 58.0768 27.0948 58.0768 26.3137 58.8579L15 70.1716L3.68629 58.8579C2.90524 58.0768 1.63891 58.0768 0.857865 58.8579C0.0768167 59.6389 0.0768167 60.9052 0.857865 61.6863L13.5858 74.4142ZM105.5 0V36.7637H109.5V0L105.5 0ZM107.5 34.7637H15V38.7637H107.5V34.7637ZM13 36.7637V73H17V36.7637H13Z" fill="#D94F04"/>
</svg>
