<svg width="89" height="78" viewBox="0 0 89 78" fill="none" xmlns="http://www.w3.org/2000/svg">
<path d="M87 39.7637L87 41.7637L89 41.7637V39.7637H87ZM15 39.7637L15 37.7637L13 37.7637L13 39.7637L15 39.7637ZM13.5858 77.4142C14.3668 78.1953 15.6332 78.1953 16.4142 77.4142L29.1421 64.6863C29.9232 63.9052 29.9232 62.6389 29.1421 61.8579C28.3611 61.0768 27.0948 61.0768 26.3137 61.8579L15 73.1716L3.6863 61.8579C2.90525 61.0768 1.63892 61.0768 0.857873 61.8579C0.0768242 62.6389 0.0768242 63.9052 0.857873 64.6863L13.5858 77.4142ZM85 0V39.7637H89V0L85 0ZM87 37.7637L15 37.7637L15 41.7637L87 41.7637L87 37.7637ZM13 39.7637L13 76L17 76L17 39.7637L13 39.7637Z" fill="#D94F04"/>
</svg>
