<svg width="338" height="662" viewBox="0 0 338 662" fill="none" xmlns="http://www.w3.org/2000/svg">
<path d="M2 660H1.19209e-07V662H2V660ZM106.5 660V662H108.5V660H106.5ZM106.5 15V13H104.5V15H106.5ZM337.414 16.4142C338.195 15.6332 338.195 14.3668 337.414 13.5858L324.686 0.857865C323.905 0.0768167 322.639 0.0768167 321.858 0.857865C321.077 1.63891 321.077 2.90524 321.858 3.68629L333.172 15L321.858 26.3137C321.077 27.0948 321.077 28.3611 321.858 29.1421C322.639 29.9232 323.905 29.9232 324.686 29.1421L337.414 16.4142ZM1.19209e-07 639.5V660H4V639.5H1.19209e-07ZM2 662H106.5V658H2V662ZM108.5 660V15H104.5V660H108.5ZM106.5 17H175.5V13H106.5V17ZM175.5 17H336V13H175.5V17Z" fill="#D94F04"/>
</svg>
