<svg width="247" height="90" viewBox="0 0 247 90" fill="none" xmlns="http://www.w3.org/2000/svg">
<path d="M232 2L232 1.19209e-07L234 2.57364e-07V2H232ZM233.414 89.4142C232.633 90.1953 231.367 90.1953 230.586 89.4142L217.858 76.6863C217.077 75.9052 217.077 74.6389 217.858 73.8579C218.639 73.0768 219.905 73.0768 220.686 73.8579L232 85.1716L243.314 73.8579C244.095 73.0768 245.361 73.0768 246.142 73.8579C246.923 74.6389 246.923 75.9052 246.142 76.6863L233.414 89.4142ZM-1.29236e-06 -1.59068e-05L232 1.19209e-07L232 4L-1.56867e-06 3.99998L-1.29236e-06 -1.59068e-05ZM234 2V88H230V2H234Z" fill="#D94F04"/>
</svg>
