<svg width="848" height="437" viewBox="0 0 848 437" fill="none" xmlns="http://www.w3.org/2000/svg">
<path d="M2 435H1.19209e-07V437H2V435ZM496 435V437H498V435H496ZM496 15V13H494V15H496ZM847.414 16.4142C848.195 15.6332 848.195 14.3668 847.414 13.5858L834.686 0.857865C833.905 0.0768167 832.639 0.0768167 831.858 0.857865C831.077 1.63891 831.077 2.90524 831.858 3.68629L843.172 15L831.858 26.3137C831.077 27.0948 831.077 28.3611 831.858 29.1421C832.639 29.9232 833.905 29.9232 834.686 29.1421L847.414 16.4142ZM1.19209e-07 377V435H4V377H1.19209e-07ZM2 437H496V433H2V437ZM498 435V15H494V435H498ZM496 17H618V13L496 13V17ZM618 17H846V13H618V17Z" fill="#D94F04"/>
</svg>
