<svg width="89" height="78" viewBox="0 0 89 78" fill="none" xmlns="http://www.w3.org/2000/svg">
<path d="M2 40H1.19209e-07V42H2V40ZM74 40H76V38H74V40ZM72.5858 77.4142C73.3668 78.1953 74.6332 78.1953 75.4142 77.4142L88.1421 64.6863C88.9232 63.9052 88.9232 62.6389 88.1421 61.8579C87.3611 61.0768 86.0948 61.0768 85.3137 61.8579L74 73.1716L62.6863 61.8579C61.9052 61.0768 60.6389 61.0768 59.8579 61.8579C59.0768 62.6389 59.0768 63.9052 59.8579 64.6863L72.5858 77.4142ZM1.19209e-07 0V40H4V0L1.19209e-07 0ZM2 42H74V38H2V42ZM72 40V76H76V40H72Z" fill="#D94F04"/>
</svg>
