<svg width="628" height="141" viewBox="0 0 628 141" fill="none" xmlns="http://www.w3.org/2000/svg">
<path d="M2 139H1.19209e-07V141H2V139ZM305.5 15V13H303.5V15H305.5ZM626.914 16.4142C627.695 15.6332 627.695 14.3668 626.914 13.5858L614.186 0.857865C613.405 0.0768167 612.139 0.0768167 611.358 0.857865C610.577 1.63891 610.577 2.90524 611.358 3.68629L622.672 15L611.358 26.3137C610.577 27.0948 610.577 28.3611 611.358 29.1421C612.139 29.9232 613.405 29.9232 614.186 29.1421L626.914 16.4142ZM305.5 139V141H307.5V139H305.5ZM1.19209e-07 105V139H4V105H1.19209e-07ZM305.5 17H625.5V13L305.5 13V17ZM2 141H305.5V137H2V141ZM307.5 139V15H303.5V139H307.5Z" fill="#D94F04"/>
</svg>
