<svg width="297" height="111" viewBox="0 0 297 111" fill="none" xmlns="http://www.w3.org/2000/svg">
<path d="M295 47V49H297L297 47L295 47ZM15 47V45H13V47H15ZM13.5858 110.414C14.3668 111.195 15.6332 111.195 16.4142 110.414L29.1421 97.6863C29.9232 96.9052 29.9232 95.6389 29.1421 94.8579C28.3611 94.0768 27.0948 94.0768 26.3137 94.8579L15 106.172L3.68629 94.8579C2.90524 94.0768 1.63891 94.0768 0.857865 94.8579C0.0768167 95.6389 0.0768167 96.9052 0.857865 97.6863L13.5858 110.414ZM293 -1.29862e-06L293 47L297 47L297 1.29862e-06L293 -1.29862e-06ZM295 45H15V49H295V45ZM13 47V109H17V47H13Z" fill="#D94F04"/>
</svg>
